<svg id="Layer_1" data-name="Layer 1" xmlns="http://www.w3.org/2000/svg" viewBox="0 0 390.4 72.8"><defs><style>.cls-1{fill:#99c006;}.cls-2{fill:#c8da8b;}</style></defs><title>logo</title><path class="cls-1" d="M95.5,128.8v12.1H90.3v11.8H78.8V126.6a17.3,17.3,0,0,1,1.5-7.5,15.77,15.77,0,0,1,5.8-6.5,14.53,14.53,0,0,1,8.1-2.5h1.2v12.1h-.6a4.29,4.29,0,0,0-3.4,1.4,6.26,6.26,0,0,0-1.2,4.1v1h5.3Z" transform="translate(-78.8 -100.7)"/><path class="cls-1" d="M116.3,141.2v11.9a11.84,11.84,0,0,1-2.6.2,15.75,15.75,0,0,1-11.6-4.6,16.18,16.18,0,0,1,.1-22.7,15.55,15.55,0,0,1,11.4-4.7c5,0,8.9,1.5,11.8,4.4s4.3,6.9,4.3,11.9v15.1H118.2V138.5a6.05,6.05,0,0,0-1.2-3.9,3.85,3.85,0,0,0-3.2-1.4,4,4,0,0,0-3.1,1.3,4.57,4.57,0,0,0-1.3,3.1,4.11,4.11,0,0,0,4.3,4.3A4.27,4.27,0,0,0,116.3,141.2Z" transform="translate(-78.8 -100.7)"/><path class="cls-1" d="M155.7,122.4v12.2a4.65,4.65,0,0,0-3.3.9,6.23,6.23,0,0,0-1.2,3.6q-.75,8.85-6.9,12.6c-2.2,1.3-5.2,1.9-9.2,1.9h-1.6V141.4h.5c1.9,0,3.2-.4,4-1.2s1.2-2.1,1.4-4.1a31.19,31.19,0,0,1,.9-6.6,9.59,9.59,0,0,1,2.6-3.8c2.3-2.2,5.4-3.3,9.4-3.3Z" transform="translate(-78.8 -100.7)"/><path class="cls-1" d="M171,110.6v12.9a10.13,10.13,0,0,1,5.9-2.1,8.51,8.51,0,0,1,7,3.2c1.7,2.1,2.6,5,2.6,8.7v19.5H175V136.5a5.83,5.83,0,0,0-.4-2.7,1.65,1.65,0,0,0-1.6-.7c-1.3,0-1.9,1-1.9,2.9v16.7H159.6V110.6Z" transform="translate(-78.8 -100.7)"/><path class="cls-1" d="M227.7,121.3a15.26,15.26,0,0,1,11.2,4.7,15.93,15.93,0,0,1,0,22.6,15.87,15.87,0,0,1-11.4,4.7,15.71,15.71,0,0,1-11.4-4.7,15.1,15.1,0,0,1-4.7-11.3,15.89,15.89,0,0,1,16.3-16Zm-.3,11.4a4,4,0,0,0-3.1,1.3,4.84,4.84,0,0,0,0,6.6,4.26,4.26,0,0,0,3.1,1.4,4.74,4.74,0,0,0,3.2-8A4.38,4.38,0,0,0,227.4,132.7Z" transform="translate(-78.8 -100.7)"/><path class="cls-1" d="M275.8,152.7H264.3V135.3c0-1.8-.7-2.7-2.2-2.7s-2.2.9-2.2,2.7v17.4H248.4V135.6a13.72,13.72,0,0,1,4-10.1,13.82,13.82,0,0,1,20.3.7c2.1,2.5,3.1,6,3.1,10.4Z" transform="translate(-78.8 -100.7)"/><path class="cls-1" d="M315,128.8v12.1h-5.2v11.8H298.3V126.6a17.3,17.3,0,0,1,1.5-7.5,15.77,15.77,0,0,1,5.8-6.5,14.53,14.53,0,0,1,8.1-2.5h1.2v12.1h-.6a4.29,4.29,0,0,0-3.4,1.4,6.26,6.26,0,0,0-1.2,4.1v1H315Z" transform="translate(-78.8 -100.7)"/><path class="cls-1" d="M338.4,141.2v11.9a11.84,11.84,0,0,1-2.6.2,15.75,15.75,0,0,1-11.6-4.6,16.1,16.1,0,0,1,11.5-27.4c5,0,8.9,1.5,11.8,4.4s4.3,6.9,4.3,11.9v15.1H340.3V138.5a6.05,6.05,0,0,0-1.2-3.9,3.85,3.85,0,0,0-3.2-1.4,4,4,0,0,0-3.1,1.3,4.26,4.26,0,0,0,3,7.4A4.45,4.45,0,0,0,338.4,141.2Z" transform="translate(-78.8 -100.7)"/><path class="cls-1" d="M400.6,152.7H389.1V136.1a5.83,5.83,0,0,0-.4-2.7,1.51,1.51,0,0,0-1.4-.7c-1.3,0-1.9,1.1-1.9,3.4v16.6H373.9V136.1a5.83,5.83,0,0,0-.4-2.7,1.58,1.58,0,0,0-1.5-.7c-1.3,0-1.9,1.1-1.9,3.4v16.6H358.6V133.8a12.23,12.23,0,0,1,3.5-8.8,11.26,11.26,0,0,1,8.5-3.6,12.29,12.29,0,0,1,9.2,4.3c3-2.9,6-4.3,9.1-4.3a11.68,11.68,0,0,1,9.3,4.2c1.8,2.2,2.7,5.4,2.7,9.5v17.6Z" transform="translate(-78.8 -100.7)"/><path class="cls-2" d="M412.7,123.1a4,4,0,0,1,2.7,1.1,3.27,3.27,0,0,1,1.1,2.6,3.47,3.47,0,0,1-1.1,2.6,3.71,3.71,0,0,1-2.8,1,4,4,0,0,1-2.8-1,3.62,3.62,0,0,1,0-5.2A4.17,4.17,0,0,1,412.7,123.1Z" transform="translate(-78.8 -100.7)"/><path class="cls-1" d="M435.4,110.6v42.1H423.9V110.6Z" transform="translate(-78.8 -100.7)"/><path class="cls-1" d="M445.7,169.6V159.4a10.58,10.58,0,0,0,4.2,1c3.8,0,6.3-2.1,7.4-6.4a11.58,11.58,0,0,1-6,1.8,9.34,9.34,0,0,1-7.2-3.2,12,12,0,0,1-2.8-8.2V124.8H453v16.8c0,1.9.8,2.8,2.3,2.8s2.2-1,2.2-3.1V124.8h11.7v27.8c0,5.2-1.5,9.4-4.4,12.6a16.54,16.54,0,0,1-12.6,5.7A20.88,20.88,0,0,1,445.7,169.6Z" transform="translate(-78.8 -100.7)"/><path class="cls-1" d="M204.6,152.7H193.3a.94.94,0,0,1-1-1V122.9a6,6,0,0,1,6-6h1.3a6,6,0,0,1,6,6v28.8A1,1,0,0,1,204.6,152.7Z" transform="translate(-78.8 -100.7)"/><path class="cls-1" d="M415.5,152.7h-5.7a1,1,0,0,1-1-1V135.5a3.08,3.08,0,0,1,3-3h1.7a3,3,0,0,1,3,3v16.2A1,1,0,0,1,415.5,152.7Z" transform="translate(-78.8 -100.7)"/><circle class="cls-2" cx="120.3" cy="6.8" r="6.8"/><path class="cls-2" d="M311.7,166.1a7.39,7.39,0,0,1-1.7,5.2,6.27,6.27,0,0,1-4.9,1.8,6.57,6.57,0,0,1-4.9-1.8,7.66,7.66,0,0,1-1.7-5.3,7.39,7.39,0,0,1,1.7-5.2,6.42,6.42,0,0,1,4.9-1.8,6.19,6.19,0,0,1,4.8,1.8C311.2,162,311.7,163.8,311.7,166.1Zm-10,0a5.84,5.84,0,0,0,.9,3.5,3.09,3.09,0,0,0,2.6,1.2c2.3,0,3.5-1.5,3.5-4.6s-1.2-4.6-3.5-4.6a3,3,0,0,0-2.6,1.2A4.65,4.65,0,0,0,301.7,166.1Z" transform="translate(-78.8 -100.7)"/><path class="cls-2" d="M326.8,173h-3.7l-6-10.4H317c.1,1.8.2,3.1.2,3.9V173h-2.6V159.3h3.7l6,10.3h.1c-.1-1.8-.1-3.1-.1-3.8v-6.5h2.6V173Z" transform="translate(-78.8 -100.7)"/><path class="cls-2" d="M338.1,173h-7.9V159.3h7.9v2.4h-5v3h4.7v2.4h-4.7v3.5h5Z" transform="translate(-78.8 -100.7)"/><path class="cls-2" d="M348.9,173H346V159.3h7.9v2.4h-5v3.5h4.7v2.4h-4.7Z" transform="translate(-78.8 -100.7)"/><path class="cls-2" d="M365,173l-1-3.3h-5l-1,3.3h-3.1l4.9-13.8h3.6l4.9,13.8Zm-1.7-5.8c-.9-3-1.4-4.6-1.6-5a5.07,5.07,0,0,1-.2-.9q-.3,1.2-1.8,6h3.6Z" transform="translate(-78.8 -100.7)"/><path class="cls-2" d="M378,169.1a3.47,3.47,0,0,1-1.3,2.9,5.82,5.82,0,0,1-3.7,1.1,9.35,9.35,0,0,1-3.9-.8v-2.7a18.63,18.63,0,0,0,2.4.9,5.66,5.66,0,0,0,1.8.3,2.41,2.41,0,0,0,1.5-.4,1.29,1.29,0,0,0,.5-1.1,1.45,1.45,0,0,0-.2-.7,4.35,4.35,0,0,0-.7-.6,14.29,14.29,0,0,0-1.8-.9,13.87,13.87,0,0,1-1.9-1.1,4.12,4.12,0,0,1-1-1.3,3.06,3.06,0,0,1-.4-1.7,3.7,3.7,0,0,1,1.2-2.9,5.11,5.11,0,0,1,3.4-1,6.45,6.45,0,0,1,2,.3c.6.2,1.3.4,2,.7l-.9,2.3a9.42,9.42,0,0,0-1.8-.6,7.84,7.84,0,0,0-1.4-.2,1.7,1.7,0,0,0-1.3.4,1.28,1.28,0,0,0-.4,1,1.45,1.45,0,0,0,.2.7,1.7,1.7,0,0,0,.6.6c.3.2.9.5,1.8,1a6.41,6.41,0,0,1,2.6,1.8A3,3,0,0,1,378,169.1Z" transform="translate(-78.8 -100.7)"/><path class="cls-2" d="M391.7,173h-2.9v-6h-5.4v5.9h-2.9V159.2h2.9v5.4h5.4v-5.4h2.9Z" transform="translate(-78.8 -100.7)"/><path class="cls-2" d="M395.2,173V159.3h2.9V173Z" transform="translate(-78.8 -100.7)"/><path class="cls-2" d="M414,166.1a7.39,7.39,0,0,1-1.7,5.2,6.27,6.27,0,0,1-4.9,1.8,6.57,6.57,0,0,1-4.9-1.8,7.66,7.66,0,0,1-1.7-5.3,7.39,7.39,0,0,1,1.7-5.2,6.42,6.42,0,0,1,4.9-1.8,6.19,6.19,0,0,1,4.8,1.8C413.5,162,414,163.8,414,166.1Zm-10,0a5.84,5.84,0,0,0,.9,3.5,3.09,3.09,0,0,0,2.6,1.2c2.3,0,3.5-1.5,3.5-4.6s-1.2-4.6-3.5-4.6a3,3,0,0,0-2.6,1.2A4.65,4.65,0,0,0,404,166.1Z" transform="translate(-78.8 -100.7)"/><path class="cls-2" d="M429.1,173h-3.7l-6-10.4h-.1c.1,1.8.2,3.1.2,3.9V173h-2.6V159.3h3.7l6,10.3h.1c-.1-1.8-.1-3.1-.1-3.8v-6.5h2.6V173Z" transform="translate(-78.8 -100.7)"/><path class="cls-2" d="M177.5,166.5a7.39,7.39,0,0,1-1.7,5.2,6.27,6.27,0,0,1-4.9,1.8,6.57,6.57,0,0,1-4.9-1.8,7.66,7.66,0,0,1-1.7-5.3,7.39,7.39,0,0,1,1.7-5.2,6.42,6.42,0,0,1,4.9-1.8,6.19,6.19,0,0,1,4.8,1.8A7.4,7.4,0,0,1,177.5,166.5Zm-10,0a5.84,5.84,0,0,0,.9,3.5,3.09,3.09,0,0,0,2.6,1.2c2.3,0,3.5-1.5,3.5-4.6s-1.2-4.6-3.5-4.6a3,3,0,0,0-2.6,1.2C167.7,163.8,167.5,165,167.5,166.5Z" transform="translate(-78.8 -100.7)"/><path class="cls-2" d="M192.1,173.4h-3.7l-6-10.4h-.1c.1,1.8.2,3.1.2,3.9v6.5h-2.6V159.7h3.7l6,10.3h.1c-.1-1.8-.1-3.1-.1-3.8v-6.5h2.6v13.7Z" transform="translate(-78.8 -100.7)"/><path class="cls-2" d="M202.7,173.4h-7.9V159.7h7.9v2.4h-5v3h4.7v2.4h-4.7V171h5Z" transform="translate(-78.8 -100.7)"/><path class="cls-2" d="M210.6,159.6h4.3a8.35,8.35,0,0,1,4.2.8,2.92,2.92,0,0,1,1.3,2.6,3.17,3.17,0,0,1-.6,2,2.37,2.37,0,0,1-1.5.9v.1a3.22,3.22,0,0,1,1.9,1.1,3.28,3.28,0,0,1,.6,2.1,3.42,3.42,0,0,1-1.4,2.9,5.82,5.82,0,0,1-3.7,1.1h-5.1Zm2.9,5.5h1.7a2.5,2.5,0,0,0,1.7-.4,1.25,1.25,0,0,0,.5-1.2,1.15,1.15,0,0,0-.6-1.1,4.18,4.18,0,0,0-1.8-.3h-1.5v3Zm0,2.3V171h1.9a3,3,0,0,0,1.8-.5,1.68,1.68,0,0,0,.6-1.4c0-1.1-.8-1.7-2.4-1.7h-1.9Z" transform="translate(-78.8 -100.7)"/><path class="cls-2" d="M226.5,168.1v5.3h-2.9V159.7h4a6.52,6.52,0,0,1,4.1,1,4.11,4.11,0,0,1,.6,5.3,4.88,4.88,0,0,1-1.9,1.5c2.1,3.1,3.4,5.1,4,6h-3.2l-3.3-5.3h-1.4Zm0-2.4h.9a3.44,3.44,0,0,0,2-.5,1.75,1.75,0,0,0,.7-1.4,1.42,1.42,0,0,0-.7-1.4,3.91,3.91,0,0,0-2.1-.4h-.9v3.7Z" transform="translate(-78.8 -100.7)"/><path class="cls-2" d="M244.7,173.4l-1-3.3h-5l-1,3.3h-3.1l4.9-13.8h3.6l4.9,13.8Zm-1.7-5.7c-.9-3-1.4-4.6-1.6-5a5.07,5.07,0,0,1-.2-.9q-.3,1.2-1.8,6H243Z" transform="translate(-78.8 -100.7)"/><path class="cls-2" d="M261.7,173.4H258L252,163h0c.1,1.8.2,3.1.2,3.9v6.5h-2.6V159.7h3.7l6,10.3h.1c-.1-1.8-.1-3.1-.1-3.8v-6.5h2.6v13.7Z" transform="translate(-78.8 -100.7)"/><path class="cls-2" d="M276.6,166.4a6.65,6.65,0,0,1-1.9,5.2,8,8,0,0,1-5.6,1.8h-3.9V159.7h4.3a7.15,7.15,0,0,1,5.2,1.8A6.12,6.12,0,0,1,276.6,166.4Zm-3,.1c0-3-1.3-4.4-3.9-4.4h-1.6v9h1.3C272.2,171,273.6,169.5,273.6,166.5Z" transform="translate(-78.8 -100.7)"/></svg>