<svg id="Layer_1" data-name="Layer 1" xmlns="http://www.w3.org/2000/svg" viewBox="0 0 397.4 292.18"><defs><style>.cls-1{fill:#99c006;}</style></defs><title>shoppingcart</title><path class="cls-1" d="M432.3,243.7c-4.9,6.9-7.3,7.7-16,6-10.5-2-21.1-3.6-31.6-5.4a5,5,0,0,0-.2,1.2c6.1,2.5,12.3,4.9,18.4,7.4,2.9,1.2,5.7,2.5,8.5,3.8,5.4,2.6,7.9,8.3,5.9,13.1-2.2,5.2-8,7.6-13.6,5.4-8.7-3.3-17.3-6.8-26-10.1-3.9-1.5-7.9-2.4-11.7-3.9-2.7-1-5.1-2.9-7.7-3.9-3.2-1.2-6.6-2.6-9.9-2.7q-40.35-.3-80.7,0c-3.1,0-4.3-.9-5.5-3.8-5.4-13.3-11.1-26.4-16.8-39.5-.5-1.1-2.2-2-3.5-2.5-7.3-3-14.8-5.4-21.8-8.9a27.39,27.39,0,0,1-10-8.8c-6-8.9-11.2-18.2-16.6-27.5-2.6-4.6-1.5-9.2,2.2-11.6,4-2.6,8.5-1.5,11.8,3,5.4,7.3,10.7,14.6,15.9,22a14.41,14.41,0,0,0,8.8,5.8c12.9,3.3,25.9,5.7,39.4,5.8,21.9.2,43.7.7,65.6,1a32.72,32.72,0,0,1,5.4.4,7.9,7.9,0,0,1,6.9,7.6c.1,3.8-2,7.2-6,8-5.4,1.1-11,1.6-16.5,2.3-7,.9-14.1,1.7-21.7,2.7,2.4,5.6,4.6,10.9,6.9,16.4,7.6-1.3,15.1-2.8,22.6-3.9,30.4-4.3,60.3-2.4,89.6,7.5,4,1.4,6.3,4.1,8.1,7.6A51.49,51.49,0,0,0,432.3,243.7Z" transform="translate(-35.1 -107.87)"/><path class="cls-1" d="M199.4,222.6c-.9-3.1-1.6-5.5-2.2-8-.5-2,.1-3.2,2.4-3.4,3.8-.4,6.8.2,9.2,3.9,9.8,14.6,19.9,29,29.8,43.5a6.35,6.35,0,0,0,6,3.1q50.85-.15,101.7-.1c6.3,0,7.6,1.7,6,7.8-5.9,23.3-11.9,46.5-17.8,69.8-1.2,4.9-2,5.4-7.3,5.4H247.4c1,4,2,7.7,3,11.3.8,3.1,1.9,6.2,2.5,9.3.5,2.7,1.8,3.2,4.3,3.2,19.7,0,39.3,0,59,.1,1.8,0,3.6,0,5.4.1,7.6.5,12.6,5.1,13.3,12.2a14.13,14.13,0,0,1-10.2,15.1c-6.8,1.8-13.6-1.6-16.6-8.2A24.92,24.92,0,0,1,307,385c-8.8,0-17.5-.1-26.3.1a3.86,3.86,0,0,0-2.6,2.1c-2.5,5.8-6.9,9.2-13.2,9.2s-10.6-3.4-13.3-9.1a4.41,4.41,0,0,0-3.2-2.1c-7.4-.4-7.4-.3-9.3-7.5q-16.65-64.05-33.3-128.2c-.3-1.2-.7-2.4-1.2-4-19.8,5.3-37.3.3-53.5-11.3a9.29,9.29,0,0,1-1,.5c.6,5.6.9,11.2,1.8,16.7,1,5.8,1.5,11.5-.1,17.3-.6,2-.2,4.4,0,6.5,4.5,34.8,4.7,69.4-4.2,103.6q-1.65,6.3-3.9,12.6c-2.2,6.4-8.3,9.8-14.3,8.3-6.3-1.6-10.1-7.5-8.9-14.3,1-6.2,2.6-12.4,3.4-18.7a222.56,222.56,0,0,0-1.3-58.7c-2.2,6.4-4.1,12.1-6,17.7-3.6,10.6-9.9,18.8-20.1,23.9-14.4,7.2-28.7,14.8-43.1,22.1-6.7,3.4-13.6,1.3-16.8-4.6s-1.2-12.6,5.2-16.6c12-7.6,24-15.3,36-22.8,5.6-3.5,9.4-8.2,10.5-15,1.5-10.2,3.4-20.4,5-30.6.2-1.5-.5-3.2-1.1-4.7-1.6-4.7-4.4-9.3-4.8-14.2-2.4-29.3,3-56.9,19.5-81.7,8.8-13.2,24.7-17.1,38.5-9.6,5.9,3.2,9.6,8.7,12.1,14.7a87.81,87.81,0,0,0,17.6,27.6C181.6,220.7,189.6,223.3,199.4,222.6Z" transform="translate(-35.1 -107.87)"/><path class="cls-1" d="M194.3,141.7c-.7,18.8-15.6,32.7-34.6,32.2-17.2-.5-32-16.2-31.3-33.2.8-19.5,15.5-33.5,34.5-32.8C180.6,108.5,194.9,123.9,194.3,141.7Z" transform="translate(-35.1 -107.87)"/><path class="cls-1" d="M269.7,131.1c15-.2,27.5,11.8,27.6,26.5.2,15.8-11.7,28.3-27,28.4a27.74,27.74,0,0,1-28-27.6C242.1,143.6,254.5,131.2,269.7,131.1Z" transform="translate(-35.1 -107.87)"/></svg>